<svg xmlns="http://www.w3.org/2000/svg" version="1.1" xmlns:xlink="http://www.w3.org/1999/xlink" xmlns:svgjs="http://svgjs.dev/svgjs" width="1500" height="1105" viewBox="0 0 1500 1105"><g transform="matrix(1,0,0,1,-0.03994082840233659,-1.0606224899598828)"><svg viewBox="0 0 338 249" data-background-color="#cd1a2f" preserveAspectRatio="xMidYMid meet" height="1105" width="1500" xmlns="http://www.w3.org/2000/svg" xmlns:xlink="http://www.w3.org/1999/xlink"><g id="tight-bounds" transform="matrix(1,0,0,1,0.00937999999999306,0.23901999999998225)"><svg viewBox="0 0 337.98125 248.52197" height="248.52197" width="337.98125"><g><svg></svg></g><g><svg viewBox="0 0 337.98125 248.52197" height="248.52197" width="337.98125"><g transform="matrix(1,0,0,1,-28.76938,0.6609800000000234)"><path d="M28.769 247.861v-248.522h337.982v248.522zM351.146 232.256v-217.312h-306.772v217.312zM331.677 247.2v-14.395h-267.834v14.395z" fill="#bfc5b7" fill-rule="nonzero" stroke="none" stroke-width="1" stroke-linecap="butt" stroke-linejoin="miter" stroke-miterlimit="10" stroke-dasharray="" stroke-dashoffset="0" font-family="none" font-weight="none" font-size="none" text-anchor="none" style="mix-blend-mode: normal" data-fill-palette-color="tertiary"></path><g><path d="M115.541 232.805c0.777 0 1.461 0.109 2.053 0.326 0.589 0.219 0.884 0.515 0.884 0.887 0 0.372-0.14 0.832-0.422 1.379-0.283 0.549-0.52 0.823-0.711 0.823v0c-0.053 0-0.114-0.03-0.182-0.089-0.07-0.057-0.23-0.121-0.479-0.191-0.251-0.068-0.467-0.102-0.648-0.103v0c-0.617 0-1.114 0.218-1.491 0.655-0.379 0.436-0.568 1.103-0.568 2.001 0 0.9 0.195 1.568 0.584 2.004 0.387 0.436 0.879 0.654 1.475 0.655v0c0.245 0 0.519-0.035 0.823-0.106 0.302-0.068 0.517-0.166 0.645-0.293v0c0.021-0.021 0.064-0.032 0.128-0.032 0.064 0 0.184 0.119 0.361 0.357 0.174 0.24 0.336 0.554 0.485 0.942 0.149 0.389 0.223 0.69 0.223 0.903v0c0 0.415-0.319 0.745-0.957 0.99-0.638 0.245-1.394 0.367-2.267 0.367v0c-1.404 0-2.559-0.495-3.463-1.485-0.904-0.989-1.356-2.386-1.356-4.19 0-1.802 0.466-3.219 1.398-4.252 0.93-1.032 2.092-1.548 3.485-1.548zM120.546 243.178c-0.666-0.734-0.999-1.75-0.999-3.048 0-1.298 0.333-2.314 0.999-3.048 0.664-0.734 1.56-1.101 2.687-1.101 1.128 0 2.021 0.367 2.681 1.101 0.66 0.734 0.989 1.75 0.99 3.048 0 1.298-0.33 2.314-0.99 3.048-0.66 0.734-1.553 1.101-2.681 1.102-1.128 0-2.024-0.367-2.687-1.102zM123.24 238.646c-0.6 0-0.9 0.489-0.9 1.468 0 0.979 0.3 1.468 0.9 1.469 0.602 0 0.903-0.489 0.903-1.469 0-0.979-0.301-1.468-0.903-1.468zM132.074 236.077v-3.032c0-0.16 0.42-0.239 1.261-0.24v0c0.287 0 0.62 0.019 0.999 0.058 0.377 0.036 0.565 0.086 0.565 0.15v0 8.41h0.559c0.266 0 0.442 0.239 0.526 0.718v0c0.021 0.138 0.032 0.328 0.032 0.568 0 0.238-0.074 0.528-0.223 0.868v0c-0.213 0.468-0.553 0.702-1.022 0.703v0c-0.351 0-0.662-0.069-0.932-0.208-0.272-0.138-0.456-0.282-0.552-0.431v0l-0.143-0.207c-0.585 0.564-1.319 0.846-2.203 0.846-0.883 0-1.638-0.367-2.266-1.102-0.628-0.734-0.942-1.759-0.941-3.073 0-1.313 0.33-2.329 0.989-3.048 0.66-0.717 1.484-1.076 2.474-1.076v0c0.287 0 0.58 0.032 0.877 0.096zM131.548 238.534v0c-0.596 0-0.894 0.537-0.894 1.612v0c0 0.543 0.085 0.933 0.255 1.172 0.17 0.24 0.36 0.361 0.569 0.36 0.206 0 0.405-0.09 0.596-0.271v0-2.713c-0.181-0.106-0.356-0.16-0.526-0.16zM139.974 236.189v7.835c0 0.085-0.486 0.128-1.459 0.128-0.975 0-1.462-0.037-1.462-0.112v0-7.835c0-0.074 0.487-0.112 1.462-0.112 0.972 0 1.459 0.032 1.459 0.096zM139.974 232.901v2.346c0 0.074-0.486 0.112-1.459 0.112-0.975 0-1.462-0.032-1.462-0.096v0-2.298c0-0.106 0.487-0.16 1.462-0.16 0.972 0 1.459 0.032 1.459 0.096zM144.746 238.902v5.122c0 0.074-0.383 0.112-1.15 0.112v0c-1.064-0.032-1.596-0.09-1.595-0.176v0-5.17h-0.415c-0.277 0-0.457-0.234-0.543-0.702v0c-0.021-0.138-0.032-0.277-0.032-0.415v0c0-0.33 0.064-0.66 0.192-0.99v0c0.192-0.468 0.489-0.702 0.893-0.702 0.404 0 0.766 0.096 1.086 0.287 0.319 0.192 0.532 0.383 0.638 0.575v0c0.67-0.575 1.468-0.862 2.394-0.862 0.926 0 1.596 0.25 2.01 0.75 0.415 0.5 0.622 1.319 0.623 2.458v0 4.787c0 0.128-0.454 0.192-1.363 0.192-0.911 0-1.366-0.064-1.366-0.192v0-4.612c0-0.532-0.186-0.798-0.559-0.798v0c-0.106 0-0.255 0.045-0.446 0.134-0.192 0.091-0.314 0.159-0.368 0.202zM153.14 244.12v0c-1.032 0-1.83-0.333-2.394-0.999-0.564-0.664-0.846-1.648-0.846-2.952 0-1.302 0.37-2.324 1.111-3.064 0.738-0.738 1.722-1.108 2.952-1.108 1.228 0 2.241 0.271 3.039 0.814v0 7.947c0 0.787-0.319 1.392-0.958 1.813-0.638 0.419-1.458 0.629-2.457 0.629-1 0-1.894-0.128-2.681-0.383v0c-0.106-0.255-0.16-0.484-0.16-0.686v0c0-0.681 0.112-1.181 0.335-1.5v0c0.713 0.309 1.474 0.463 2.282 0.462v0c0.585 0 0.878-0.207 0.878-0.622v0-0.479c-0.457 0.085-0.825 0.128-1.101 0.128zM153.874 238.598v0c-0.713 0-1.069 0.537-1.069 1.612v0c0 0.67 0.138 1.106 0.415 1.309v0c0.181 0.138 0.362 0.207 0.542 0.207 0.181 0 0.34-0.016 0.479-0.048v0-3.032c-0.128-0.032-0.25-0.048-0.367-0.048zM168.667 238.917v5.123c0 0.074-0.454 0.112-1.362 0.112-0.911 0-1.366-0.048-1.366-0.144v0-4.644c0-0.532-0.176-0.798-0.527-0.798v0c-0.181 0-0.42 0.117-0.718 0.351v0 5.107c0 0.106-0.454 0.16-1.363 0.16-0.911 0-1.366-0.059-1.366-0.176v0-5.218h-0.399c-0.351 0-0.527-0.367-0.527-1.101v0c0-0.33 0.064-0.665 0.192-1.006v0c0.17-0.468 0.447-0.702 0.83-0.702 0.383 0 0.753 0.101 1.11 0.303 0.355 0.202 0.57 0.394 0.645 0.575v0c0.66-0.585 1.392-0.878 2.196-0.878 0.802 0 1.448 0.25 1.937 0.75v0c0.575-0.5 1.266-0.75 2.075-0.75v0c1.755 0 2.633 1.069 2.633 3.208v0 4.851c0 0.074-0.454 0.112-1.363 0.112-0.911 0-1.366-0.048-1.366-0.144v0-4.644c0-0.532-0.176-0.798-0.526-0.798v0c-0.192 0-0.436 0.117-0.735 0.352zM176.168 243.482l-2.713-7.262c0-0.117 0.487-0.176 1.462-0.175 0.972 0 1.475 0.053 1.506 0.16v0l1.149 3.766 1.102-3.798c0.043-0.085 0.372-0.128 0.989-0.128v0c1.415 0 2.091 0.069 2.027 0.207v0l-3.751 10.677c-0.011 0.064-0.3 0.096-0.868 0.095-0.57 0-1.1-0.018-1.589-0.054-0.489-0.038-0.723-0.084-0.702-0.137v0zM193.292 241.439l0.574-5.219c0-0.096 0.293-0.144 0.878-0.143v0c1.319 0 1.968 0.043 1.947 0.128v0l-1.564 7.755c-0.032 0.17-0.622 0.255-1.772 0.256-1.149 0-1.739-0.085-1.771-0.256v0l-0.654-3.574-0.814 3.574c-0.032 0.16-0.64 0.239-1.826 0.24-1.187 0-1.797-0.096-1.829-0.287v0l-1.42-7.772c-0.032-0.064 0.426-0.096 1.372-0.096v0c0.936 0.011 1.404 0.032 1.405 0.064v0l0.734 5.394 1.324-5.33c0.021-0.064 0.372-0.096 1.054-0.096 0.681 0 1.032 0.032 1.053 0.096v0zM198.59 238.327v0c-0.298-0.532-0.447-0.966-0.447-1.302 0-0.334 0.09-0.549 0.271-0.645v0c0.606-0.266 1.439-0.399 2.499-0.399 1.058 0 1.804 0.247 2.241 0.741 0.436 0.496 0.654 1.228 0.654 2.195v0 2.522h0.543c0.181 0 0.322 0.106 0.424 0.319 0.1 0.213 0.15 0.505 0.15 0.878 0 0.372-0.093 0.739-0.277 1.101-0.187 0.362-0.44 0.543-0.76 0.543v0c-0.575 0-1.037-0.154-1.388-0.463v0c-0.16-0.128-0.282-0.282-0.367-0.463v0c-0.489 0.617-1.25 0.926-2.282 0.926v0c-0.777 0-1.431-0.277-1.963-0.83-0.532-0.553-0.798-1.208-0.798-1.963v0c0-1.734 1.037-2.601 3.112-2.601v0h0.877v-0.16c0-0.277-0.045-0.454-0.134-0.533-0.091-0.081-0.302-0.121-0.632-0.121v0c-0.404 0-0.979 0.085-1.723 0.255zM199.867 241.263v0c0 0.234 0.064 0.412 0.191 0.533 0.128 0.123 0.29 0.185 0.488 0.186 0.196 0 0.373-0.08 0.533-0.24v0-1.229h-0.446c-0.511 0-0.766 0.25-0.766 0.75zM207.989 243.482l-2.712-7.262c0-0.117 0.487-0.176 1.461-0.175 0.972 0 1.475 0.053 1.507 0.16v0l1.149 3.766 1.101-3.798c0.043-0.085 0.372-0.128 0.989-0.128v0c1.415 0 2.091 0.069 2.027 0.207v0l-3.75 10.677c-0.011 0.064-0.3 0.096-0.868 0.095-0.57 0-1.1-0.018-1.59-0.054-0.489-0.038-0.723-0.084-0.702-0.137v0zM221.076 238.375v5.649c0 0.128-0.447 0.192-1.341 0.192v0c-1.064-0.043-1.596-0.112-1.596-0.208v0-5.649h-0.814c-0.213 0-0.319-0.367-0.319-1.101v0c0-0.192 0.019-0.426 0.058-0.702 0.036-0.277 0.113-0.415 0.229-0.415v0h0.846v-1.405c0-0.213 0.45-0.319 1.35-0.319 0.898 0 1.347 0.085 1.347 0.255v0 1.022l0.016 0.447h1.357c0.181 0 0.271 0.372 0.271 1.117 0 0.745-0.09 1.117-0.271 1.117v0zM223.974 243.178c-0.666-0.734-0.999-1.75-0.999-3.048 0-1.298 0.333-2.314 0.999-3.048 0.664-0.734 1.56-1.101 2.687-1.101 1.128 0 2.021 0.367 2.681 1.101 0.66 0.734 0.989 1.75 0.99 3.048 0 1.298-0.33 2.314-0.99 3.048-0.66 0.734-1.553 1.101-2.681 1.102-1.128 0-2.024-0.367-2.687-1.102zM226.671 238.646c-0.602 0-0.903 0.489-0.904 1.468 0 0.979 0.301 1.468 0.904 1.469 0.6 0 0.9-0.489 0.9-1.469 0-0.979-0.3-1.468-0.9-1.468zM234.8 241.247v0c0.862 0.521 1.543 0.782 2.043 0.782v0c0.319 0 0.479-0.112 0.478-0.335v0c0-0.16-0.277-0.367-0.829-0.622v0c-1.33-0.543-1.995-1.431-1.995-2.665v0c0-0.787 0.287-1.388 0.861-1.804 0.575-0.415 1.263-0.622 2.066-0.622 0.804 0 1.485 0.085 2.042 0.255 0.56 0.17 0.839 0.394 0.84 0.671v0c0 0.234-0.114 0.543-0.342 0.925-0.23 0.383-0.387 0.59-0.472 0.623v0c-0.457-0.255-0.952-0.383-1.484-0.383v0c-0.287 0-0.431 0.101-0.431 0.303v0c0 0.128 0.055 0.236 0.166 0.325 0.113 0.091 0.318 0.203 0.616 0.336 0.298 0.134 0.545 0.254 0.74 0.36 0.198 0.106 0.419 0.255 0.664 0.447v0c0.511 0.404 0.766 0.931 0.766 1.58v0c0 0.851-0.282 1.539-0.846 2.065-0.564 0.528-1.415 0.792-2.553 0.792v0c-0.755 0-1.442-0.128-2.059-0.383-0.617-0.255-0.926-0.606-0.925-1.054v0c0-0.298 0.071-0.612 0.213-0.941 0.145-0.33 0.292-0.548 0.441-0.655zM241.566 240.944v-4.708c0-0.117 0.457-0.176 1.373-0.175 0.915 0 1.372 0.059 1.372 0.175v0 4.66c0 0.532 0.17 0.798 0.511 0.798v0c0.255 0 0.543-0.112 0.862-0.335v0-5.123c0-0.106 0.452-0.16 1.356-0.159 0.904 0 1.356 0.053 1.357 0.159v0 5.235h0.415c0.362 0 0.543 0.346 0.542 1.037v0c0 0.351-0.074 0.708-0.223 1.069v0c-0.213 0.468-0.5 0.702-0.862 0.703v0c-0.713 0-1.239-0.293-1.58-0.878v0l-0.016 0.016c-0.649 0.575-1.346 0.862-2.09 0.862v0c-1.032 0-1.793-0.259-2.283-0.776-0.489-0.515-0.734-1.368-0.734-2.56zM252.945 240.162v0c0 1.043 0.394 1.564 1.181 1.564v0c0.511 0 0.936-0.101 1.276-0.303v0c0.16 0 0.289 0.273 0.39 0.82 0.102 0.549 0.153 0.921 0.153 1.117 0 0.198-0.027 0.329-0.08 0.393v0c-0.564 0.351-1.335 0.527-2.314 0.527-0.979 0-1.812-0.365-2.499-1.095-0.685-0.728-1.028-1.722-1.028-2.984 0-1.26 0.337-2.278 1.012-3.055 0.677-0.777 1.576-1.165 2.697-1.165 1.123 0 1.903 0.271 2.34 0.814v0c0.096 0.117 0.144 0.289 0.143 0.517 0 0.23-0.043 0.51-0.127 0.839v0c-0.192 0.681-0.442 1.075-0.75 1.181v0c-0.043 0.011-0.104 0.016-0.185 0.016-0.079 0-0.177-0.064-0.294-0.191v0c-0.415-0.415-0.748-0.622-0.999-0.623-0.249 0-0.464 0.128-0.645 0.383-0.181 0.255-0.271 0.67-0.271 1.245zM259.711 240.162v0c0 1.043 0.394 1.564 1.181 1.564v0c0.511 0 0.936-0.101 1.277-0.303v0c0.16 0 0.289 0.273 0.389 0.82 0.102 0.549 0.153 0.921 0.154 1.117 0 0.198-0.027 0.329-0.08 0.393v0c-0.564 0.351-1.335 0.527-2.314 0.527-0.979 0-1.812-0.365-2.499-1.095-0.685-0.728-1.028-1.722-1.028-2.984 0-1.26 0.337-2.278 1.012-3.055 0.677-0.777 1.576-1.165 2.697-1.165 1.123 0 1.903 0.271 2.339 0.814v0c0.096 0.117 0.144 0.289 0.144 0.517 0 0.23-0.043 0.51-0.128 0.839v0c-0.192 0.681-0.442 1.075-0.75 1.181v0c-0.043 0.011-0.104 0.016-0.185 0.016-0.079 0-0.177-0.064-0.294-0.191v0c-0.415-0.415-0.748-0.622-0.999-0.623-0.249 0-0.464 0.128-0.644 0.383-0.181 0.255-0.271 0.67-0.272 1.245zM269.893 243.689v0c-0.67 0.394-1.532 0.59-2.585 0.591-1.053 0-1.942-0.36-2.665-1.079-0.723-0.717-1.085-1.712-1.086-2.984 0-1.27 0.348-2.294 1.044-3.071 0.698-0.777 1.579-1.165 2.643-1.165 1.064 0 1.885 0.271 2.464 0.814 0.581 0.543 0.871 1.202 0.871 1.979v0c0 1.724-0.989 2.585-2.968 2.585v0h-1.101c0 0.319 0.087 0.539 0.261 0.661 0.177 0.123 0.435 0.185 0.776 0.185v0c0.745 0 1.452-0.17 2.122-0.511v0c0.011-0.011 0.059 0.064 0.144 0.224v0c0.255 0.457 0.383 0.843 0.383 1.155 0 0.315-0.101 0.52-0.303 0.616zM267.898 239.077v0c0-0.447-0.218-0.67-0.654-0.67v0c-0.202 0-0.376 0.062-0.52 0.185-0.143 0.121-0.214 0.299-0.214 0.533v0 0.495h0.861c0.351 0 0.527-0.181 0.527-0.543zM271.952 241.247v0c0.862 0.521 1.543 0.782 2.042 0.782v0c0.319 0 0.479-0.112 0.479-0.335v0c0-0.16-0.277-0.367-0.83-0.622v0c-1.33-0.543-1.995-1.431-1.995-2.665v0c0-0.787 0.287-1.388 0.862-1.804 0.575-0.415 1.263-0.622 2.065-0.622 0.804 0 1.485 0.085 2.043 0.255 0.56 0.17 0.839 0.394 0.839 0.671v0c0 0.234-0.115 0.543-0.344 0.925-0.228 0.383-0.384 0.59-0.47 0.623v0c-0.457-0.255-0.952-0.383-1.484-0.383v0c-0.287 0-0.431 0.101-0.431 0.303v0c0 0.128 0.055 0.236 0.166 0.325 0.113 0.091 0.318 0.203 0.616 0.336 0.298 0.134 0.545 0.254 0.741 0.36 0.198 0.106 0.419 0.255 0.664 0.447v0c0.511 0.404 0.766 0.931 0.766 1.58v0c0 0.851-0.282 1.539-0.846 2.065-0.564 0.528-1.415 0.792-2.553 0.792v0c-0.755 0-1.442-0.128-2.059-0.383-0.617-0.255-0.926-0.606-0.926-1.054v0c0-0.298 0.071-0.612 0.214-0.941 0.145-0.33 0.292-0.548 0.441-0.655zM279.133 241.247v0c0.862 0.521 1.543 0.782 2.043 0.782v0c0.319 0 0.479-0.112 0.478-0.335v0c0-0.16-0.277-0.367-0.829-0.622v0c-1.33-0.543-1.995-1.431-1.995-2.665v0c0-0.787 0.287-1.388 0.861-1.804 0.575-0.415 1.263-0.622 2.066-0.622 0.804 0 1.485 0.085 2.042 0.255 0.56 0.17 0.839 0.394 0.84 0.671v0c0 0.234-0.115 0.543-0.345 0.925-0.228 0.383-0.384 0.59-0.469 0.623v0c-0.457-0.255-0.952-0.383-1.484-0.383v0c-0.287 0-0.431 0.101-0.431 0.303v0c0 0.128 0.055 0.236 0.166 0.325 0.113 0.091 0.318 0.203 0.616 0.336 0.298 0.134 0.545 0.254 0.74 0.36 0.198 0.106 0.419 0.255 0.664 0.447v0c0.511 0.404 0.766 0.931 0.766 1.58v0c0 0.851-0.282 1.539-0.846 2.065-0.564 0.528-1.415 0.792-2.553 0.792v0c-0.755 0-1.442-0.128-2.059-0.383-0.617-0.255-0.926-0.606-0.925-1.054v0c0-0.298 0.071-0.612 0.213-0.941 0.145-0.33 0.292-0.548 0.441-0.655z" fill="#bfc5b7" fill-rule="nonzero" stroke="none" stroke-width="1" stroke-linecap="butt" stroke-linejoin="miter" stroke-miterlimit="10" stroke-dasharray="" stroke-dashoffset="0" font-family="none" font-weight="none" font-size="none" text-anchor="none" style="mix-blend-mode: normal" data-fill-palette-color="secondary" id="text-1"></path></g></g><g transform="matrix(1,0,0,1,26.43062500000002,37.74098500000001)"><svg viewBox="0 0 285.11999999999995 173.04" height="173.04" width="285.11999999999995"><g><svg viewBox="0 0 285.11999999999995 173.04" height="173.04" width="285.11999999999995"><g><svg viewBox="0 0 285.11999999999995 173.04" height="173.04" width="285.11999999999995"><g><svg viewBox="0 0 285.11999999999995 173.04" height="173.04" width="285.11999999999995"><g id="textblocktransform"><svg viewBox="0 0 285.11999999999995 173.04" height="173.04" width="285.11999999999995" id="textblock"><g><svg viewBox="0 0 285.11999999999995 173.04" height="173.04" width="285.11999999999995"><g transform="matrix(1,0,0,1,0,0)"><svg width="285.11999999999995" viewBox="2.55 -35.55 59.400000000000006 36.05" height="173.04" data-palette-color="#bfc5b7"><path d="M16.25-0.55L16.25-0.55Q18.75-0.55 20.68-1.9 22.6-3.25 22.6-5.98 22.6-8.7 20.53-10.15 18.45-11.6 14.63-12.68 10.8-13.75 9.08-14.55 7.35-15.35 5.8-16.65L5.8-16.65Q2.7-19.25 2.7-24.7L2.7-24.7Q2.7-29.15 5.88-32.35 9.05-35.55 14.55-35.55L14.55-35.55Q17.2-35.55 20.08-34.77 22.95-34 23.65-34 24.35-34 24.9-35L24.9-35 25.45-35 25.8-24.9 25-24.9Q22.6-29.25 19.98-31.88 17.35-34.5 14.28-34.5 11.2-34.5 9.5-33.08 7.8-31.65 7.8-29.28 7.8-26.9 9.83-25.63 11.85-24.35 14.8-23.55 17.75-22.75 18.68-22.45 19.6-22.15 20.98-21.63 22.35-21.1 23.23-20.53 24.1-19.95 25.08-19.07 26.05-18.2 26.6-17.15L26.6-17.15Q27.95-14.75 27.95-11.45L27.95-11.45Q27.95-6.05 24.58-2.78 21.2 0.5 15.7 0.5L15.7 0.5Q12.85 0.5 9.18-0.25 5.5-1 5.1-1L5.1-1Q4.4-1 3.75 0.5L3.75 0.5 3.05 0.5 2.55-11.4 3.4-11.4Q5.6-7.05 9.03-3.8 12.45-0.55 16.25-0.55ZM41.1-34.05L49.5-9.05 58.2-34.05 54.3-34.05 54.3-35 61.95-35 61.95-34.05 59.6-34.05 47.55 0.5 43.35 0.5 30.6-34.05 28.3-34.05 28.3-35 44.65-35 44.65-34.05 41.1-34.05Z" opacity="1" transform="matrix(1,0,0,1,0,0)" fill="#bfc5b7" class="wordmark-text-0" data-fill-palette-color="primary" id="text-0"></path></svg></g></svg></g></svg></g></svg></g><g></g></svg></g></svg></g></svg></g></svg></g><defs></defs></svg><rect width="337.98125" height="248.52197" fill="none" stroke="none" visibility="hidden"></rect></g></svg></g></svg>